/* XPM */
static char *_cd9301143074f27efb509575fbc2387mf15PuLjveuz3viV[] = {
/* columns rows colors chars-per-pixel */
"60 60 2 1 ",
"  c gray1",
". c #040404",
/* pixels */
" .. ... ..    .   . .        .     .  .   ..     .      .   ",
" . .. ..  . .    . .   . .           .  .     .        ..   ",
" . .   . . . ...    .               . .       .             ",
"             .         . .              .    .     ..    .  ",
"   .    .       . .   .                  ..                 ",
"..    .      .  ..  .                                       ",
"             .   . ..   . .      .              .  .   .   .",
"        .                           .    .                  ",
"              .                 . ..                        ",
"              .     .    ..   .                    . .      ",
"   . ..     .               . .                 .           ",
"   .    .                        .            .   .         ",
"     .        .              ..              .    .    .    ",
"    .           .                  .              .         ",
".                                                           ",
"  .                    ...                                  ",
"                      .   .    .                            ",
"                                        .     .             ",
"             .   .           .                  .           ",
"                                                            ",
"                                                            ",
"                .         .                           .     ",
"    .                       .                               ",
"                            .    .                          ",
"         .                  .  ..                           ",
"                                                            ",
"                                                            ",
"                                                            ",
"                   .        .  ..       .            .      ",
"           .                                    .           ",
"               .                                     .      ",
" .                 .                                        ",
"                 .   . .                     .              ",
"        .                  ..      .                        ",
" .                                                          ",
" ..   ..                     .                              ",
"   .            . ..        . .                 .           ",
"           .       .   .      .                             ",
" .                 .          ..   .         .              ",
" ..     .   ...                      .     .                ",
".  .  .   . .  .                          .                 ",
"         .  ..   . .                         .     .        ",
"..  .      ..       .        .       .                      ",
"    .     .  .     .         .         .   .                ",
"      ..  . .                    .           .. . .         ",
".              ..  .  .        .                            ",
"    .   ..        .     .   .   .                           ",
"            .        .             .   .                    ",
"...  .    .               .   ..                            ",
"                             .                              ",
".            .                  . .              .          ",
"                                                            ",
"        .      .         .                                  ",
" .                    .                             .      .",
"  .      .             .         .                          ",
"      . . .    ..   .. .                                    ",
" .    .    .   . . .        .  . ..          .  .           ",
"            . .  . .        . ..    .    . ..     .         ",
"      .   . ..  .   .      .      . ..                      ",
".     ..    .           .  ..  .   .  ..     .  .          ."
};
