/* XPM */
static char *_fa3505cfcbe4bed9db29af1ac11490fdSmIGsd3gnfM5Ad8[] = {
/* columns rows colors chars-per-pixel */
"60 60 5 1 ",
"  c None",
". c #CCCC03",
"X c yellow",
"o c #FFFF04",
"O c #F70AC8",
/* pixels */
"                                                            ",
"                                                            ",
"                                                            ",
"                                                            ",
"                                                            ",
"                     oooooooooooooooooo                     ",
"                     oooooooooooooooooo                     ",
"                   oooooooooooooooooooooo                   ",
"                   oooooooooooooooooooooo                   ",
"                 oooo..................oooo                 ",
"                 oooo..................oooo                 ",
"               oooo..oooooooooooooooooo..oooo               ",
"               oooo..oooooooooooooooooo..oooo               ",
"             oooo..oooooooooooooooooooooo..oooo             ",
"             oooo..oooooooooooooXXooooooo..oooo             ",
"           oooo..oooooooooooXXXXXXXoooooooo..oooo           ",
"           oooo..oooooooooXXXXXXXXXoooooooo..oooo           ",
"         oooo..ooooXoooooXXXXXXXXXXXooooooooo..oooo         ",
"         oooo..ooooXooooXXXXXXXXXXXXXoooooooo..oooo         ",
"       oooo..oooooooooooXXXXXXXXXXXXXoooooooooo..oooo       ",
"       oooo..ooooooooooXXXXXXXXXXXXXXoooooooooo..oooo       ",
"     oooo..ooooooooooooXXXXXXXXXXXXXXoooooooooooo..oooo     ",
"     oooo..ooooOoooooooXXXXXXXXXoXXXXoooooOoooooo..oooo     ",
"     oooo..ooooOooooooXXXXXXXXXXXXXXXoooooOoooooo..oooo     ",
"     oooo..ooooOOoooooXXXXXXXXXXXXXXXoooooOOOoooo..oooo     ",
"     oooo..ooOOooOooooXXXXXXXXXXOXXXXooooOOoOOooo..oooo     ",
"     oooo..ooOOooOooooXXXXXXXXXXOXXXoooooOOoOOooo..oooo     ",
"     oooo..ooOOoooooXOOXXXXXXXXXOOXXOOXOoOOoooooo..oooo     ",
"     oooo..ooOOOOoooOXXOXOOXXOXOOXOXOOXOoOOoooooo..oooo     ",
"     oooo..ooooOOOooOOXXXOOXXOXOOXOXOOXOooOOooooo..oooo     ",
"     oooo..ooooooOOoOOXXXOOXXOXOOXXXOOXOXoooOOooo..oooo     ",
"     oooo..oooOooOOoOOOOXOOXXOXOOXXXOOXOXoooOOooo..oooo     ",
"     oooo..ooOOooOOoOOXXXOOXXOXXOOXXOOXOXOooOOooo..oooo     ",
"     oooo..ooOOooOOoOOooXOXOOOXXXOOXOOXOXOOOOoooo..oooo     ",
"     oooo..ooooOOOooOooOXOXOOOXXXOOXOOXOXXOOOoooo..oooo     ",
"     oooo..oooooOoooXOOXXOXOOOXOXOOXXOOXXXoOooooo..oooo     ",
"     oooo..oooooOooooooXXOXXOOXOXXOXXXXXXXoOooooo..oooo     ",
"     oooo..oooooooooooXXXXXXXXXoOOXXXXXXXXooooooo..oooo     ",
"     oooo..oooooooooooXXXXXXXXXooOXXXXXXXXooooooo..oooo     ",
"       oooo..oooooooooXXXXXXXXXXXOXXXXXXXXooooo..oooo       ",
"       oooo..oooooooooXXXXXXXXXXXXXXXXXXXoooooo..oooo       ",
"         oooo..ooooooooXXXXXXXXXXXXXXXXXXoooo..oooo         ",
"         oooo..oooooooooooXXXXXXXXXXXXXoooooo..oooo         ",
"           oooo..ooooooooooXXXXXXXXXXoooooo..oooo           ",
"           oooo..ooooooooooXXXXXXXooooooooo..oooo           ",
"             oooo..oooooooooXXXXXoooooooo..oooo             ",
"             oooo..ooooooooooXXoooooooooo..oooo             ",
"               oooo..oooooooooooooooooo..oooo               ",
"               oooo..oooooooooooooooooo..oooo               ",
"                 oooo..................oooo                 ",
"                 oooo..................oooo                 ",
"                   oooooooooooooooooooooo                   ",
"                   oooooooooooooooooooooo                   ",
"                     oooooooooooooooooo                     ",
"                     oooooooooooooooooo                     ",
"                                                            ",
"                                                            ",
"                                                            ",
"                                                            ",
"                                                            "
};
