/* XPM */
static char *_dbad7ffe644420596277699c916b8baNNhNNXKZwDJKtdF5[] = {
/* columns rows colors chars-per-pixel */
"60 60 10 1 ",
"  c None",
". c gray26",
"X c #00C853",
"o c #00E676",
"O c #FFD54F",
"+ c #2979FF",
"@ c #448AFF",
"# c gray74",
"$ c #FFE082",
"% c gray96",
/* pixels */
"                         ..#####+++                         ",
"                    ++++++%.##%+%+%++++X                    ",
"                  ++++++++%.##.++..%++XXXX                  ",
"                XX+XXX+++++.#.++%%.++XXXX+++                ",
"              XXXX+XXXX+++++.++++++++XXX+++XXX              ",
"             XXXXXXXXXX+++++.++++++++XXX+++XXXX             ",
"           XXXXXXXXXXXXX++++++++++++++++++XXXXXXX           ",
"           XXXXXXXXXXXXX++++++++++++++++++XXXXXXX           ",
"         ooXXXXXXXXXXXXXXX++++++++++++++XXXXXXXXXXX         ",
"        oooooXXXXXXXXXXXX++++++++++++++XXXXXXXX++XXX        ",
"       oooooooooooXX++++X++++++++++++++XXX+++XXX++XXX       ",
"      ooooooooooooo+++++++++++++++++++++XX++XXX+++++++      ",
"      ooooooooooooo++++++++++++++++++++++O++++++++++++      ",
"     ooooooooooooo++++++++++++++++++++++OO+++++++++++++     ",
"    ooooooooooooo+++++++++++++++++++++$$OOOO$$$+++++++++    ",
"    oooooooooooo+++++++++++++++++++++$$$OOOO$$$$++++++++    ",
"    oooo+ooooo+++++++++++++++++++++++$$$OOOO$$$$$+++++$$$   ",
"   ooo+++++oo++++++++++++++++++++++$$$$OOO$$$$$O$$$$$$$$O   ",
"  oooo+++++oo++++++++++++++++++++++$$$$OOO$$$OO$$$$$$$$$O$  ",
"  ooo++++++oo+++++++++++++++++++++$$$$$$$$$$O$$$$$$$$$$$O$  ",
" ooooo+o++++++++++++++++++++++++++$$$$$$$$$$O$$$$$$$$$$$$$$ ",
" ooooooo++++++++++++++++++++++++++$$$$$$$$$$$$$$$$$$OO$$$$$ ",
" ooooooo+++++++++++++++++++++++++++$$$$$$$$$$$$$$$$$$O$$$$$ ",
" +oooo+++++++++++++++++++++++++++++$$O$$$$$$$$$$$$$$$$$$$$$ ",
" +oooo++++++++++++++++++++++++++++$$$$$$$$$$$$$$$$$$$$$$$$$ ",
" ++ooo++++++++++++++++++++++++++++$$$$$$$$$$$$$$$$$$$$$$$$$ ",
"++++ooo+++++++XXX++++++++++++++++++o$$oo$ooooooooooo$$$$$$$$",
"+++++ooo+++++XXXXXXXX++++++++++++++ooooooooooooooooooooo$$oo",
"++++++ooo+XXXXXXXXXXXXX+X++++++++++ooooooooooooooooooooooooo",
"+++++++oXXXXXXXXXXXXXXX+X+++++++++++++oooooooooooooooooooooo",
"++++++XXXXXXXXXXXXXXXXX+X+X+++++++++++++++++oooooooooooooooo",
"++++++XXXXXXXXXXXXXXXXXXXXXXX+++++++++++++++oooooooooooooooo",
"++++++XXXXXXXXXXXXXXXXXXXXXXXXX++++++++++++++XXooooooooooooX",
"++++++XXXXXXXXXXXXXXXXXXXXXXXXX++++++++++++++XXXooooooooooXX",
" +++++XXXXXXXXXXXooXXXXXXXXXXXXX+++++++++++++XXXXooooooooXX ",
" +++++XXXXXXXXXXoooooXXXXXXXXXXX++++++++++++++XXXooooooo@XX ",
" +++++XXXXXXXoooooooooXXXXXXXXXX+++++++++++++++XXXXXXoo@@@@ ",
" +++++XXXXXooooooooooooXXXXXXXXX++++++++++++++XXXXXXXXXX@@X ",
" ++++++XoooooooooooooooXXXXXXXXX++++++++++++++XXXXXXXXXX@@X ",
" ++++++oooooooooooooooooooXXXX+++++++++++++++++XXXXXXXXXXXX ",
"  +++++oooooooooooooooooooooXX+++++++++++++++++XXXXXXXXXXX  ",
"  +++++oooooooooooooooooooooo++++++++++++++++++XXXXXXXXXXX  ",
"   +++++oooooooooooooooooooo+++++++++++++++++++XXXXXXXXXX   ",
"    ++++++ooooooooooooooo+++++++++++++++++++++XXXXXXXXXX    ",
"    +++++++oooooooooooooo+++++++++++++++++++++XXXXXXXXXX    ",
"    ++++++++$$ooooooooooo+++++++++++++++++++++XXXXXXXXXX    ",
"     ++++++++.$$ooooooooo++++++++++++++++++++++XXXXXXXX     ",
"      ++++++++.$ooooooooo++++++++++++++++++++++XXXXXXX      ",
"      +++++++++.$oooooo++++++++++++++++++++++++++XXXXX      ",
"       ++++++++.$oooooo++++++++++++++++++++++++++XXXo       ",
"        ++++++++$$oooooo++++++++++++++++++++++++++++        ",
"         +++++++.$$ooooo+++++++++++++++++++++++++++         ",
"           +++++..$$ooo++++++++++++++++++++++++++           ",
"           ++++++.$$oo+++++++++++++++++++++++++++           ",
"             +++++.$ooo++++++++++++++++++++++++             ",
"              +++++$ooo+++++++++++++++++++++++              ",
"                +++$ooo+++++++++++++++++++++                ",
"                  ++ooo+++++++++++++++++++                  ",
"                    $o++++++++++++++++++                    ",
"                         ++++++++++                         "
};
