/* XPM */
static char *fdd7073faee04f65fad0e974d999b961ZR8JMhOtbabDJTmm[] = {
/* columns rows colors chars-per-pixel */
"60 60 6 1 ",
"  c None",
". c black",
"X c #2D8730",
"o c #4CAF50",
"O c #009688",
"+ c white",
/* pixels */
"                                                            ",
"            ...+++++                                        ",
"            ...+++++                                        ",
"            +++oooooooooooooooooo   OOOOOOO                 ",
"            +++oooooooooooooooooo   OOOOOOO                 ",
"            +++oooooooooooooooooo   OOOOOOO                 ",
"               ooo+++++++oooooooooooOOOOOOO                 ",
"               ooo+++++++oooooooooooOOOOOOO                 ",
"               ooo++...++oooooooooooOOOOOOO                 ",
"               ooo++...++oooooooooooOOOOOOO                 ",
"               ooo++...++oooooooooooOOOOOOO                 ",
"  oooooooooooooooo+++++++oooooooooooooooo                   ",
"  oooooooooooooooo+++++++oooooooooooooooo                   ",
"  ooooooooooooooooooooooooooooooooooooooooo                 ",
"  ooooooooooooooooooooooooooooooooooooooooo                 ",
"  ooooooooooooooooooooooooooooooooooooooooo                 ",
"  ooooooooooooooooooooooooooooooooooooooooo                 ",
"  ooooooooooooooooooooooooooooooooooooooooo                 ",
"  XXXXXXXXXXXXXoooooooooooooooooooooooooooo                 ",
"  XXXXXXXXXXXXXoooooooooooooooooooooooooooo                 ",
"  ooooo+++oo+++oooooooooooooooooooooooooooo   OOOOO         ",
"  ooooo+++oo+++oooooooooooooooooooooooooooo   OOOOO         ",
"  ooooo+++oo+++oooooooooooooooooooooooooooo   OOOOO         ",
"  ooooooooooooooooooooooooooooooooooooooooooooOOOOO         ",
"  ooooooooooooooooooooooooooooooooooooooooooooOOOOO         ",
"               oooooooooooooooooooooooooooooooOOOOO         ",
"               oooooooooooooooooooooooooooooooOOOOO         ",
"               oooooooooooooooooooooooooooooooOOOOO         ",
"            ooooooooooooooooooooooooooooooooooooo           ",
"            ooooooooooooooooooooooooooooooooooooo           ",
"            oooooooooooooXXXXXXXXXXXooooooooooooooo         ",
"            oooooooooooooXXXXXXXXXXXooooooooooooooo         ",
"          XXXXXXXXoooooooXXXXXXXXXXXooooooooooooooo   OOOOO ",
"          XXXXXXXXoooooooXXXXXXXXXXXooooooooooooooo   OOOOO ",
"          XXXXXXXXoooooooXXXXXXXXXXXooooooooooooooo   OOOOO ",
"          XXXXXXXXoooooooXXXXXoooooooooooooooooooooOOOOOOOO ",
"          XXXXXXXXoooooooXXXXXoooooooooooooooooooooOOOOOOOO ",
"          XXXXXooooooooooooooooooooooooooooooooooooOOOOOOOO ",
"          XXXXXooooooooooooooooooooooooooooooooooooOOOOOOOO ",
"          XXXXXooooooooooooooooooooooooooooooooooooOOOOOOOO ",
"               ooooooooooooooooooooooooooooooooooooOOOOOOOO ",
"               ooooooooooooooooooooooooooooooooooooOOOOOOOO ",
"               ooooooooooooooooooooooooooooooooooooOOOOOOOO ",
"               ooooooooooooooooooooooooooooooooooooOOOOOOOO ",
"                  ooooooooooooooooooooooooooooooooooooOO    ",
"                  ooooooooooooooooooooooooooooooooooooOO    ",
"                  ooooooooooooooooooooooooooooooooooooOO    ",
"                    oooooooooooooooooooooooooooooooooo      ",
"                    oooooooooooooooooooooooooooooooooo      ",
"                       oooooooooooooooooooooooooooo         ",
"                       oooooooooooooooooooooooooooo         ",
"                       oooooooooooooooooooooooooooo         ",
"                            oooooooooooooooooo              ",
"                            oooooooooooooooooo              ",
"                            oo           oo                 ",
"                            oo           oo                 ",
"                            oo           oo                 ",
"                         ooooo        ooooo                 ",
"                         ooooo        ooooo                 ",
"                                                            "
};
