/* XPM */
static char *_83668f8583d40f2cf64973d0df661d8ypBkpMhOUF6RdrDo[] = {
/* columns rows colors chars-per-pixel */
"60 60 7 1 ",
"  c None",
". c #18162A",
"X c #242A46",
"o c #263A5A",
"O c #2C5C6E",
"+ c #529894",
"@ c #7FBD8E",
/* pixels */
"                   +++@@@@@@@@@@@@@@@@+++                   ",
"                   +++@@@@@@@@@@@@@@@@+++                   ",
"                   +++@@@@@@@@@@@@@@@@+++                   ",
"             +++++++++@@@@@@@@@@@@@@@@+++++++++             ",
"             +++++++++@@@@@@@@@@@@@@@@+++++++++             ",
"             +++++++++@@@@@@@@@@@@@@@@+++++++++             ",
"         ++++++++++@@@@@@++++++++++++++++++++++++++         ",
"         ++++++++++@@@@@@++++++++++++++++++++++++++         ",
"         ++++++++++@@@@@@++++++++++++++++++++++++++         ",
"      OOO++++@@@@@@@@@++++++OOOOOOOOOOOOOOOOOOO++++OOO      ",
"      OOO++++@@@@@@@@@++++++OOOOOOOOOOOOOOOOOOO++++OOO      ",
"      OOO++++@@@@@@@@@++++++OOOOOOOOOOOOOOOOOOO++++OOO      ",
"      OOO++++@@@@@@@@@++++++OOOOOOOOOOOOOOOOOOO++++OOO      ",
"   OOOOOO++++@@@+++++++++OOOOOOOoooooooooOOOOOOOOOOOOOOOO   ",
"   OOOOOO++++@@@+++++++++OOOOOOOoooooooooOOOOOOOOOOOOOOOO   ",
"   OOOOOO++++@@@+++++++++OOOOOOOoooooooooOOOOOOOOOOOOOOOO   ",
"   OOOOOO@@@@@@@+++OOOOOOOOOOOOO......oooooooooOOOOOOOOOO   ",
"   OOOOOO@@@@@@@+++OOOOOOOOOOOOO......oooooooooOOOOOOOOOO   ",
"   OOOOOO@@@@@@@+++OOOOOOOOOOOOO......oooooooooOOOOOOOOOO   ",
"OOOOOO@@@@@@@++++++OOOOOO.............oooooooooooooOOOOOOOOO",
"OOOOOO@@@@@@@++++++OOOOOO.............oooooooooooooOOOOOOOOO",
"OOOOOO@@@@@@@++++++OOOOOO.............oooooooooooooOOOOOOOOO",
"OOOOOO@@@@@@@++++++OOO......@@@@@@@@@@XXXXXXoooooooOOOOOOOOO",
"OOOOOO@@@@@@@++++++OOO......@@@@@@@@@@XXXXXXoooooooOOOOOOOOO",
"OOOOOO@@@@@@@++++++OOO......@@@@@@@@@@XXXXXXoooooooOOOOOOOOO",
"OOOOOOOOO@@@@++++++OOO...@@@@@@@...@@@@@@XXXXXXoooooooOOOOOO",
"OOOOOOOOO@@@@++++++OOO...@@@@@@@...@@@@@@XXXXXXoooooooOOOOOO",
"OOOOOOOOO@@@@++++++OOO...@@@@@@@...@@@@@@XXXXXXoooooooOOOOOO",
"OOOOOOOOO@@@@++++++OOO.............+++@@@@@@XXXoooooooOOOOOO",
"OOOOOOOOO@@@@++++++OOO.............+++@@@@@@XXXoooooooOOOOOO",
"OOOOOOOOO@@@@++++++OOO.............+++@@@@@@XXXoooooooOOOOOO",
"OOOOOOOOO@@@@++++++OOO.............+++@@@@@@XXXoooooooOOOOOO",
"OOOoooOOO@@@@@@@+++OOOOOO.......OOO+++@@@XXXXXXoooooooOOOOOO",
"OOOoooOOO@@@@@@@+++OOOOOO.......OOO+++@@@XXXXXXoooooooOOOOOO",
"OOOoooOOO@@@@@@@+++OOOOOO.......OOO+++@@@XXXXXXoooooooOOOOOO",
"oooooooooOOOO@@@++++++OOOOOOOOOOOOO+++XXXXXXXXXoooooooOOOOOO",
"oooooooooOOOO@@@++++++OOOOOOOOOOOOO+++XXXXXXXXXoooooooOOOOOO",
"oooooooooOOOO@@@++++++OOOOOOOOOOOOO+++XXXXXXXXXoooooooOOOOOO",
"ooooooooooooo@@@++++++++++++++++++++++XXXXXXXXXooooooooooooo",
"ooooooooooooo@@@++++++++++++++++++++++XXXXXXXXXooooooooooooo",
"ooooooooooooo@@@++++++++++++++++++++++XXXXXXXXXooooooooooooo",
"   oooooooooo@@@@@@@@@++++++++++@@@XXXXXXXXXXXXoooooooooo   ",
"   oooooooooo@@@@@@@@@++++++++++@@@XXXXXXXXXXXXoooooooooo   ",
"   oooooooooo@@@@@@@@@++++++++++@@@XXXXXXXXXXXXoooooooooo   ",
"   ooooooXXXXXXX@@@@@@@@@@@@@@@@XXXXXXXXXXXXooooooooooooo   ",
"   ooooooXXXXXXX@@@@@@@@@@@@@@@@XXXXXXXXXXXXooooooooooooo   ",
"   ooooooXXXXXXX@@@@@@@@@@@@@@@@XXXXXXXXXXXXooooooooooooo   ",
"      oooXXXXXXXXXXXXXXXXXXXXXXXXXXXXXXXXXXXXXXooooooo      ",
"      oooXXXXXXXXXXXXXXXXXXXXXXXXXXXXXXXXXXXXXXooooooo      ",
"      oooXXXXXXXXXXXXXXXXXXXXXXXXXXXXXXXXXXXXXXooooooo      ",
"      oooXXXXXXXXXXXXXXXXXXXXXXXXXXXXXXXXXXXXXXooooooo      ",
"         ooooXXXXXXXXXXXXXXXXXXXXXXXXXXXXXXXXXXXXXX         ",
"         ooooXXXXXXXXXXXXXXXXXXXXXXXXXXXXXXXXXXXXXX         ",
"         ooooXXXXXXXXXXXXXXXXXXXXXXXXXXXXXXXXXXXXXX         ",
"             XXXXXXXXXXXXXXXXXXXXXXXXXXXXXXXXXX             ",
"             XXXXXXXXXXXXXXXXXXXXXXXXXXXXXXXXXX             ",
"             XXXXXXXXXXXXXXXXXXXXXXXXXXXXXXXXXX             ",
"                   XXXXXXXXXXXXXXXXXXXXXX                   ",
"                   XXXXXXXXXXXXXXXXXXXXXX                   ",
"                   XXXXXXXXXXXXXXXXXXXXXX                   "
};
