/* XPM */
static char *cc84c63ad8c24e66dc0243bc2aae9cedFQZVDYJc1PUZS9Ru[] = {
/* columns rows colors chars-per-pixel */
"60 60 6 1 ",
"  c None",
". c black",
"X c #2D8730",
"o c #4CAF50",
"O c #009688",
"+ c white",
/* pixels */
"                                                            ",
"                                        +++++...            ",
"                                        +++++...            ",
"                 OOOOOOO   oooooooooooooooooo+++            ",
"                 OOOOOOO   oooooooooooooooooo+++            ",
"                 OOOOOOO   oooooooooooooooooo+++            ",
"                 OOOOOOOooooooooooo+++++++ooo               ",
"                 OOOOOOOooooooooooo+++++++ooo               ",
"                 OOOOOOOooooooooooo++...++ooo               ",
"                 OOOOOOOooooooooooo++...++ooo               ",
"                 OOOOOOOooooooooooo++...++ooo               ",
"                   oooooooooooooooo+++++++oooooooooooooooo  ",
"                   oooooooooooooooo+++++++oooooooooooooooo  ",
"                 ooooooooooooooooooooooooooooooooooooooooo  ",
"                 ooooooooooooooooooooooooooooooooooooooooo  ",
"                 ooooooooooooooooooooooooooooooooooooooooo  ",
"                 ooooooooooooooooooooooooooooooooooooooooo  ",
"                 ooooooooooooooooooooooooooooooooooooooooo  ",
"                 ooooooooooooooooooooooooooooXXXXXXXXXXXXX  ",
"                 ooooooooooooooooooooooooooooXXXXXXXXXXXXX  ",
"         OOOOO   oooooooooooooooooooooooooooo+++oo+++ooooo  ",
"         OOOOO   oooooooooooooooooooooooooooo+++oo+++ooooo  ",
"         OOOOO   oooooooooooooooooooooooooooo+++oo+++ooooo  ",
"         OOOOOoooooooooooooooooooooooooooooooooooooooooooo  ",
"         OOOOOoooooooooooooooooooooooooooooooooooooooooooo  ",
"         OOOOOooooooooooooooooooooooooooooooo               ",
"         OOOOOooooooooooooooooooooooooooooooo               ",
"         OOOOOooooooooooooooooooooooooooooooo               ",
"           ooooooooooooooooooooooooooooooooooooo            ",
"           ooooooooooooooooooooooooooooooooooooo            ",
"         oooooooooooooooXXXXXXXXXXXooooooooooooo            ",
"         oooooooooooooooXXXXXXXXXXXooooooooooooo            ",
" OOOOO   oooooooooooooooXXXXXXXXXXXoooooooXXXXXXXX          ",
" OOOOO   oooooooooooooooXXXXXXXXXXXoooooooXXXXXXXX          ",
" OOOOO   oooooooooooooooXXXXXXXXXXXoooooooXXXXXXXX          ",
" OOOOOOOOoooooooooooooooooooooXXXXXoooooooXXXXXXXX          ",
" OOOOOOOOoooooooooooooooooooooXXXXXoooooooXXXXXXXX          ",
" OOOOOOOOooooooooooooooooooooooooooooooooooooXXXXX          ",
" OOOOOOOOooooooooooooooooooooooooooooooooooooXXXXX          ",
" OOOOOOOOooooooooooooooooooooooooooooooooooooXXXXX          ",
" OOOOOOOOoooooooooooooooooooooooooooooooooooo               ",
" OOOOOOOOoooooooooooooooooooooooooooooooooooo               ",
" OOOOOOOOoooooooooooooooooooooooooooooooooooo               ",
" OOOOOOOOoooooooooooooooooooooooooooooooooooo               ",
"    OOoooooooooooooooooooooooooooooooooooo                  ",
"    OOoooooooooooooooooooooooooooooooooooo                  ",
"    OOoooooooooooooooooooooooooooooooooooo                  ",
"      oooooooooooooooooooooooooooooooooo                    ",
"      oooooooooooooooooooooooooooooooooo                    ",
"         oooooooooooooooooooooooooooo                       ",
"         oooooooooooooooooooooooooooo                       ",
"         oooooooooooooooooooooooooooo                       ",
"              oooooooooooooooooo                            ",
"              oooooooooooooooooo                            ",
"                 oo           oo                            ",
"                 oo           oo                            ",
"                 oo           oo                            ",
"                 ooooo        ooooo                         ",
"                 ooooo        ooooo                         ",
"                                                            "
};
