/* XPM */
static char *_cf1363251284aade57b2a7b419b1253UWRRqgOiDRWNwxtH[] = {
/* columns rows colors chars-per-pixel */
"60 60 6 1 ",
"  c None",
". c gray11",
"X c #6B6D94",
"o c #B5B6DE",
"O c #DEDBFF",
"+ c white",
/* pixels */
"                                                            ",
"                                                            ",
"                                                            ",
"                                                            ",
"                                                            ",
"                                                            ",
"                                                            ",
"                                                            ",
"                                                            ",
"                                                            ",
"                                                            ",
"                                                            ",
"                                                            ",
"             .XXXXXXXXXXXXXXXXXXXXXXXXXXXXXXXX.             ",
"             ..XooOOO++++++++++++++++++OOOooX..             ",
"             ...XooX....................XooX...             ",
"             .XXooX......................XooXX.             ",
"             .Xooo........................oooX.             ",
"             XXooX........................XooXX             ",
"            .XXOo.........XXXXXXXX.........oOXX.            ",
"            .XX+X.......X.XoO++ooX.X.......X+XX.            ",
"            .XX+X......X...XoOooX...X......X+XX.            ",
"     XXoO.. .XX+o......X............X......o+XX. ..oOXX     ",
"   XXoO+++o .XoOoX......X..........X......XoOoX. o+++OoXX   ",
" .XX...Xo++..XoOoo........................ooOoX..++oX...XX. ",
".XX.....Xo+..XoO+oX......................Xo+OoX..+oX.....XX.",
".XX.....XX+..XoO++OX....................XO++OoX..+XX.....XX.",
".X.......XO..XooO++++OooooXXXXXXXXooooO++++OooX..OX.......X.",
"XX..XX...Xo..XoooOoX....................XoOoooX..oX...XX..XX",
"Xo.......XX..XooooX......................XooooX..XX.......oX",
"XoX.....XXX..XoooX........................XoooX..XXX.....XoX",
"XXoX...XXX...Xooo..........................oooX...XXX...XoXX",
"XXXXXXXXXX...XooX.........XXXXXXXX.........XooX...XXXXXXXXXX",
"XXXX...XXX...Xoo........X.XoO++ooX.X........ooX...XXX...XXXX",
"XXX.....XX...Xoo.......X...XoOooX...X.......ooX...XX.....XXX",
"XXX.....XX...Xoo.......X............X.......ooX...XX.....XXX",
".XX.Xo...X...Xoo........X..........X........ooX...X...oX.XX.",
".XX.XX...X...XXoX..........................XoXX...X...XX.XX.",
".XX......X...XXoo..........................ooXX...X......XX.",
".XX......X...XXooX........................XooXX...X......XX.",
"..XX....X.....oXooX......................XooXo.....X....XX..",
"....XXXX.......XXXXX....................XXXXX.......XXXX....",
" ................XXXXXXXXXXXXXXXXXXXXXXXXXX................ ",
"                                                            ",
"                                                            ",
"                                                            ",
"                                                            ",
"                                                            ",
"                                                            ",
"                                                            ",
"                                                            ",
"                                                            ",
"                                                            ",
"                                                            ",
"                                                            ",
"                                                            ",
"                                                            ",
"                                                            ",
"                                                            ",
"                                                            "
};
